<?xml version="1.0" encoding="utf-8"?>
<!-- Generator: Adobe Illustrator 24.0.1, SVG Export Plug-In . SVG Version: 6.00 Build 0)  -->
<svg version="1.0" id="Layer_1" xmlns="http://www.w3.org/2000/svg" xmlns:xlink="http://www.w3.org/1999/xlink" x="0px" y="0px"
	 viewBox="0 0 100 100" style="enable-background:new 0 0 100 100;" xml:space="preserve">
<style type="text/css">
	.st0{fill:url(#SVGID_1_);}
	.st1{fill:#FFFFFF;}
</style>
<linearGradient id="SVGID_1_" gradientUnits="userSpaceOnUse" x1="35.9038" y1="66.1337" x2="68.3642" y2="33.6733" gradientTransform="matrix(1 0 0 -1 0 102)">
	<stop  offset="0" style="stop-color:#739DB6"/>
	<stop  offset="9.050663e-02" style="stop-color:#79A1B9"/>
	<stop  offset="0.2072" style="stop-color:#89ACC1"/>
	<stop  offset="0.3382" style="stop-color:#A3BFCF"/>
	<stop  offset="0.4786" style="stop-color:#C8D8E2"/>
	<stop  offset="0.5828" style="stop-color:#E8EFF3"/>
	<stop  offset="0.6746" style="stop-color:#BFD2DD"/>
	<stop  offset="0.765" style="stop-color:#9EBBCC"/>
	<stop  offset="0.8512" style="stop-color:#86AAC0"/>
	<stop  offset="0.9315" style="stop-color:#78A0B9"/>
	<stop  offset="1" style="stop-color:#739DB6"/>
</linearGradient>
<path class="st0" d="M46.6,79.1h2.6l40-40.1c0.6-0.6,0.9-1.3,0.9-2.1L90,23c0-1.7-1.3-3-3-3H53.5c-1.1,0-2.2,0.4-3,1.2L10.8,61v18
	h12.8H46L46.6,79.1L46.6,79.1z"/>
<g>
	<path class="st1" d="M47,80H13c-1.7,0-3-1.3-3-3V63c0-1.7,1.3-3,3-3h34c1.7,0,3,1.3,3,3v14C50,78.7,48.7,80,47,80z"/>
</g>
</svg>
