<?xml version="1.0" encoding="utf-8"?>
<!-- Generator: Adobe Illustrator 24.0.1, SVG Export Plug-In . SVG Version: 6.00 Build 0)  -->
<svg version="1.0" id="Layer_1" xmlns="http://www.w3.org/2000/svg" xmlns:xlink="http://www.w3.org/1999/xlink" x="0px" y="0px"
	 viewBox="0 0 100 100" style="enable-background:new 0 0 100 100;" xml:space="preserve">
<style type="text/css">
	.st0{fill:url(#SVGID_1_);}
	.st1{fill:#FFFFFF;}
	.st2{fill:url(#SVGID_2_);}
	.st3{fill:url(#SVGID_3_);}
	.st4{fill:url(#SVGID_4_);}
	.st5{fill:url(#SVGID_5_);}
</style>
<linearGradient id="SVGID_1_" gradientUnits="userSpaceOnUse" x1="35.9053" y1="66.1696" x2="64.1567" y2="37.9183" gradientTransform="matrix(1 0 0 -1 0 102)">
	<stop  offset="0" style="stop-color:#739DB6"/>
	<stop  offset="0.5102" style="stop-color:#E8EFF3"/>
	<stop  offset="1" style="stop-color:#739DB6"/>
</linearGradient>
<path class="st0" d="M84.2,44.1c3.6-3.6,5.8-8.6,5.8-14c0-11-9-20-20-20c-5.7,0-10.8,2.4-14.4,6.1L15.9,55.9L16,84l28.4-0.1
	l39.7-39.7C84.1,44.2,84.2,44.1,84.2,44.1L84.2,44.1L84.2,44.1z"/>
<g>
	<circle class="st1" cx="30" cy="70" r="20"/>
</g>
<g>
	
		<linearGradient id="SVGID_2_" gradientUnits="userSpaceOnUse" x1="51.7214" y1="53.3382" x2="58.6312" y2="63.2065" gradientTransform="matrix(1 0 0 -1 0 102)">
		<stop  offset="0" style="stop-color:#B9CEDB"/>
		<stop  offset="0.1352" style="stop-color:#9FBCCD"/>
		<stop  offset="0.294" style="stop-color:#87ABC0"/>
		<stop  offset="0.4412" style="stop-color:#78A1B9"/>
		<stop  offset="0.5642" style="stop-color:#739DB6"/>
		<stop  offset="0.6555" style="stop-color:#79A1B9"/>
		<stop  offset="0.7727" style="stop-color:#89ACC1"/>
		<stop  offset="0.9037" style="stop-color:#A3BECF"/>
		<stop  offset="1" style="stop-color:#BBCFDC"/>
	</linearGradient>
	<path class="st2" d="M36.3,36c3.3-2.1,7.5-2.9,11.5-2.6c4.1,0.3,8.1,1.7,11.5,4c3.4,2.3,6.3,5.5,8.1,9.1s2.7,7.7,2,11.6L69,58.2
		c-0.8-3.5-2.3-6.9-4.3-9.9S60,42.7,57,40.7s-6.4-3.4-9.9-4.2c-3.5-0.7-7.2-0.7-10.8-0.1V36z"/>
</g>
<g>
	
		<linearGradient id="SVGID_3_" gradientUnits="userSpaceOnUse" x1="43.7335" y1="45.2555" x2="50.6433" y2="55.1237" gradientTransform="matrix(1 0 0 -1 0 102)">
		<stop  offset="0" style="stop-color:#B9CEDB"/>
		<stop  offset="0.1352" style="stop-color:#9FBCCD"/>
		<stop  offset="0.294" style="stop-color:#87ABC0"/>
		<stop  offset="0.4412" style="stop-color:#78A1B9"/>
		<stop  offset="0.5642" style="stop-color:#739DB6"/>
		<stop  offset="0.6555" style="stop-color:#79A1B9"/>
		<stop  offset="0.7727" style="stop-color:#89ACC1"/>
		<stop  offset="0.9037" style="stop-color:#A3BECF"/>
		<stop  offset="1" style="stop-color:#BBCFDC"/>
	</linearGradient>
	<path class="st3" d="M28.3,44.1c3.3-2.1,7.5-2.9,11.5-2.6c4.1,0.3,8.1,1.7,11.5,4c3.4,2.3,6.3,5.5,8.1,9.1c1.8,3.6,2.7,7.7,2,11.6
		H61c-0.8-3.5-2.3-6.9-4.3-9.9S52,50.7,49,48.7s-6.4-3.4-9.9-4.2c-3.5-0.7-7.2-0.7-10.8-0.1V44.1z"/>
</g>
<g>
	
		<linearGradient id="SVGID_4_" gradientUnits="userSpaceOnUse" x1="68.0386" y1="69.6628" x2="74.9484" y2="79.531" gradientTransform="matrix(1 0 0 -1 0 102)">
		<stop  offset="0" style="stop-color:#B9CEDB"/>
		<stop  offset="0.1352" style="stop-color:#9FBCCD"/>
		<stop  offset="0.294" style="stop-color:#87ABC0"/>
		<stop  offset="0.4412" style="stop-color:#78A1B9"/>
		<stop  offset="0.5642" style="stop-color:#739DB6"/>
		<stop  offset="0.6555" style="stop-color:#79A1B9"/>
		<stop  offset="0.7727" style="stop-color:#89ACC1"/>
		<stop  offset="0.9037" style="stop-color:#A3BECF"/>
		<stop  offset="1" style="stop-color:#BBCFDC"/>
	</linearGradient>
	<path class="st4" d="M52.6,19.7c3.3-2.1,7.5-2.9,11.5-2.6c4.1,0.3,8.1,1.7,11.5,4s6.3,5.5,8.1,9.1c1.8,3.6,2.7,7.7,2,11.6l-0.4,0.1
		C84.5,38.4,83,35,81,32s-4.7-5.6-7.7-7.6s-6.4-3.4-9.9-4.2c-3.5-0.7-7.2-0.7-10.8-0.1L52.6,19.7z"/>
</g>
<g>
	
		<linearGradient id="SVGID_5_" gradientUnits="userSpaceOnUse" x1="60.0037" y1="61.6129" x2="66.9135" y2="71.4811" gradientTransform="matrix(1 0 0 -1 0 102)">
		<stop  offset="0" style="stop-color:#B9CEDB"/>
		<stop  offset="0.1352" style="stop-color:#9FBCCD"/>
		<stop  offset="0.294" style="stop-color:#87ABC0"/>
		<stop  offset="0.4412" style="stop-color:#78A1B9"/>
		<stop  offset="0.5642" style="stop-color:#739DB6"/>
		<stop  offset="0.6555" style="stop-color:#79A1B9"/>
		<stop  offset="0.7727" style="stop-color:#89ACC1"/>
		<stop  offset="0.9037" style="stop-color:#A3BECF"/>
		<stop  offset="1" style="stop-color:#BBCFDC"/>
	</linearGradient>
	<path class="st5" d="M44.6,27.7c3.3-2.1,7.5-2.9,11.5-2.6c4.1,0.3,8.1,1.7,11.5,4s6.3,5.5,8.1,9.1c1.8,3.6,2.7,7.7,2,11.6l-0.4,0.1
		C76.5,46.4,75,43,73,40s-4.7-5.6-7.7-7.6s-6.4-3.4-9.9-4.2c-3.5-0.7-7.2-0.7-10.8-0.1L44.6,27.7z"/>
</g>
</svg>
