<?xml version="1.0" encoding="utf-8"?>
<!-- Generator: Adobe Illustrator 24.0.1, SVG Export Plug-In . SVG Version: 6.00 Build 0)  -->
<svg version="1.0" id="Layer_1" xmlns="http://www.w3.org/2000/svg" xmlns:xlink="http://www.w3.org/1999/xlink" x="0px" y="0px"
	 viewBox="0 0 100 100" style="enable-background:new 0 0 100 100;" xml:space="preserve">
<style type="text/css">
	.st0{fill:#FFFFFF;}
	.st1{fill:url(#SVGID_1_);}
	.st2{fill:#739DB6;}
	.st3{fill:url(#SVGID_2_);}
</style>
<path class="st0" d="M34,63c0-2.7,2.2-5,5-5h11v-8H34h-8H10v8h11c2.7,0,5,2.2,5,5v27h8V63"/>
<linearGradient id="SVGID_1_" gradientUnits="userSpaceOnUse" x1="40" y1="82" x2="60" y2="62" gradientTransform="matrix(1 0 0 -1 0 102)">
	<stop  offset="0" style="stop-color:#739DB6"/>
	<stop  offset="1" style="stop-color:#E8EFF3"/>
</linearGradient>
<polygon class="st1" points="50,10 10,50 50,50 90,10 "/>
<polygon class="st2" points="50,50 50,58 90,18 90,10 "/>
<linearGradient id="SVGID_2_" gradientUnits="userSpaceOnUse" x1="47.5" y1="54.6" x2="64.2223" y2="37.8777" gradientTransform="matrix(1 0 0 -1 0 102)">
	<stop  offset="0" style="stop-color:#739DB6"/>
	<stop  offset="0.1595" style="stop-color:#81A6BD"/>
	<stop  offset="0.4582" style="stop-color:#A4BFD0"/>
	<stop  offset="0.8612" style="stop-color:#DDE8EE"/>
	<stop  offset="0.9302" style="stop-color:#E8EFF3"/>
</linearGradient>
<path class="st3" d="M73.9,34.1v16L34,90V77.2V63c0-2.8,2.2-5,5-5h11l32.1-32.1"/>
</svg>
