<?xml version="1.0" encoding="utf-8"?>
<!-- Generator: Adobe Illustrator 24.0.1, SVG Export Plug-In . SVG Version: 6.00 Build 0)  -->
<svg version="1.0" id="Layer_1" xmlns="http://www.w3.org/2000/svg" xmlns:xlink="http://www.w3.org/1999/xlink" x="0px" y="0px"
	 viewBox="0 0 100 100" style="enable-background:new 0 0 100 100;" xml:space="preserve">
<style type="text/css">
	.st0{fill:url(#SVGID_1_);}
	.st1{display:none;fill:url(#SVGID_2_);}
	.st2{display:none;fill:url(#SVGID_3_);}
	.st3{fill:#FFFFFF;}
	.st4{display:none;fill:#FFFFFF;}
</style>
<linearGradient id="SVGID_1_" gradientUnits="userSpaceOnUse" x1="19.567" y1="64.2167" x2="61.6135" y2="23.0107" gradientTransform="matrix(1 0 0 -1 0 102)">
	<stop  offset="0" style="stop-color:#739DB6"/>
	<stop  offset="0.5102" style="stop-color:#E8EFF3"/>
	<stop  offset="1" style="stop-color:#739DB6"/>
</linearGradient>
<path class="st0" d="M50,10L10,50v40h40l40-40c0-5.5-4.5-10-10-10H65c-2.8,0-5-2.2-5-5V20C60,14.5,55.5,10,50,10"/>
<linearGradient id="SVGID_2_" gradientUnits="userSpaceOnUse" x1="60.8796" y1="43.3101" x2="76.3776" y2="27.0801" gradientTransform="matrix(1 0 0 -1 0 102)">
	<stop  offset="0.1411" style="stop-color:#FFFFFF"/>
	<stop  offset="0.2021" style="stop-color:#ECECEC"/>
	<stop  offset="0.3833" style="stop-color:#B8B8B8"/>
	<stop  offset="0.5533" style="stop-color:#8F8F8F"/>
	<stop  offset="0.7069" style="stop-color:#717171"/>
	<stop  offset="0.839" style="stop-color:#5F5F5F"/>
	<stop  offset="0.9342" style="stop-color:#595959"/>
</linearGradient>
<path class="st1" d="M80,40L40,80c5.5,0,10,4.5,10,10l40-40C90,44.5,85.5,40,80,40z"/>
<linearGradient id="SVGID_3_" gradientUnits="userSpaceOnUse" x1="67.5703" y1="30.7804" x2="31.5645" y2="56.2182" gradientTransform="matrix(1 0 0 -1 0 102)">
	<stop  offset="0.2344" style="stop-color:#FFFFFF"/>
	<stop  offset="0.3139" style="stop-color:#F9F9F9"/>
	<stop  offset="0.4178" style="stop-color:#E9E9E9"/>
	<stop  offset="0.5352" style="stop-color:#CECECE"/>
	<stop  offset="0.6626" style="stop-color:#A8A8A8"/>
	<stop  offset="0.7965" style="stop-color:#787878"/>
	<stop  offset="0.905" style="stop-color:#4C4C4C"/>
</linearGradient>
<path class="st2" d="M65,40c-2.8,0-5-2.2-5-5L20,75c0,2.8,2.2,5,5,5h15l40-40H65z"/>
<path class="st3" d="M50,90c0-5.5-4.5-10-10-10H25c-2.8,0-5-2.2-5-5V60c0-5.5-4.5-10-10-10v10v20l0,0v10l0,0l0,0h10l0,0h20H50z"/>
<polygon class="st4" points="20,75 20,60 60,20 60,35 "/>
</svg>
