<?xml version="1.0" encoding="utf-8"?>
<!-- Generator: Adobe Illustrator 24.0.1, SVG Export Plug-In . SVG Version: 6.00 Build 0)  -->
<svg version="1.0" id="Layer_1" xmlns="http://www.w3.org/2000/svg" xmlns:xlink="http://www.w3.org/1999/xlink" x="0px" y="0px"
	 viewBox="0 0 100 100" style="enable-background:new 0 0 100 100;" xml:space="preserve">
<style type="text/css">
	.st0{fill:url(#SVGID_1_);}
	.st1{fill:#FFFFFF;}
	.st2{fill:url(#SVGID_2_);}
	.st3{fill:url(#SVGID_3_);}
	.st4{fill:#739DB6;}
</style>
<linearGradient id="SVGID_1_" gradientUnits="userSpaceOnUse" x1="20" y1="30" x2="29.979" y2="20.021" gradientTransform="matrix(1 0 0 -1 0 102)">
	<stop  offset="0" style="stop-color:#739DB6"/>
	<stop  offset="0.7951" style="stop-color:#E8EFF3"/>
	<stop  offset="1" style="stop-color:#739DB6"/>
</linearGradient>
<polygon class="st0" points="10,82 30,62 30,82 "/>
<path class="st1" d="M50,58v-8H34h-8H10v8h11c2.7,0,5,2.2,5,5v14c0,2.7-2.2,5-5,5H10v8h16h8h16v-8H39c-2.8,0-5-2.2-5-5V63
	c0-2.7,2.2-5,5-5H50z"/>
<linearGradient id="SVGID_2_" gradientUnits="userSpaceOnUse" x1="48.1373" y1="55.2373" x2="69.4583" y2="33.9163" gradientTransform="matrix(1 0 0 -1 0 102)">
	<stop  offset="0" style="stop-color:#739DB6"/>
	<stop  offset="0.5102" style="stop-color:#E8EFF3"/>
	<stop  offset="1" style="stop-color:#739DB6"/>
</linearGradient>
<path class="st2" d="M90,42L50,82l-10.9,0.2c-2.8,0-5.1-2.2-5.1-5V63c0-2.8,2.2-5,5-5h11l24-24v3c0,2.8,2.3,5,5,5H90z"/>
<linearGradient id="SVGID_3_" gradientUnits="userSpaceOnUse" x1="40" y1="82" x2="60" y2="62" gradientTransform="matrix(1 0 0 -1 0 102)">
	<stop  offset="0" style="stop-color:#739DB6"/>
	<stop  offset="1" style="stop-color:#E8EFF3"/>
</linearGradient>
<polygon class="st3" points="50,10 10,50 50,50 90,10 "/>
<polygon class="st4" points="50,50 50,58 90,18 90,10 "/>
<polygon class="st4" points="50,82 90,42 90,50 50,90 "/>
</svg>
