<?xml version="1.0" encoding="utf-8"?>
<!-- Generator: Adobe Illustrator 24.0.1, SVG Export Plug-In . SVG Version: 6.00 Build 0)  -->
<svg version="1.0" id="Layer_1" xmlns="http://www.w3.org/2000/svg" xmlns:xlink="http://www.w3.org/1999/xlink" x="0px" y="0px"
	 viewBox="0 0 100 100" style="enable-background:new 0 0 100 100;" xml:space="preserve">
<style type="text/css">
	.st0{fill:url(#SVGID_1_);}
	.st1{fill:#FFFFFF;}
	.st2{fill:url(#SVGID_2_);}
	.st3{fill:url(#SVGID_3_);}
	.st4{fill:#739DB6;}
</style>
<linearGradient id="SVGID_1_" gradientUnits="userSpaceOnUse" x1="25.0158" y1="29.9842" x2="34.9948" y2="20.0053" gradientTransform="matrix(1 0 0 -1 0 102)">
	<stop  offset="0" style="stop-color:#739DB6"/>
	<stop  offset="0.7951" style="stop-color:#E8EFF3"/>
	<stop  offset="1" style="stop-color:#739DB6"/>
</linearGradient>
<polygon class="st0" points="15,82 35,62 35,82 "/>
<path class="st1" d="M45,58v-8H34h-8H15v8h6c2.7,0,5,2.2,5,5v14c0,2.7-2.2,5-5,5h-6v8h11h8h11v-8h-6c-2.8,0-5-2.2-5-5V63
	c0-2.7,2.2-5,5-5H45z"/>
<linearGradient id="SVGID_2_" gradientUnits="userSpaceOnUse" x1="47.3874" y1="54.4873" x2="65.8155" y2="36.0591" gradientTransform="matrix(1 0 0 -1 0 102)">
	<stop  offset="0" style="stop-color:#739DB6"/>
	<stop  offset="0.5102" style="stop-color:#E8EFF3"/>
	<stop  offset="1" style="stop-color:#739DB6"/>
</linearGradient>
<path class="st2" d="M85,42L45,82l-5.9,0.2c-2.8,0-5.1-2.2-5.1-5V63c0-2.8,2.2-5,5-5h6l29-29v8c0,2.8,2.3,5,5,5H85z"/>
<linearGradient id="SVGID_3_" gradientUnits="userSpaceOnUse" x1="42.5" y1="79.5" x2="61.4684" y2="60.5316" gradientTransform="matrix(1 0 0 -1 0 102)">
	<stop  offset="0" style="stop-color:#739DB6"/>
	<stop  offset="1" style="stop-color:#E8EFF3"/>
</linearGradient>
<polygon class="st3" points="55,10 15,50 45,50 45,58 85,18 85,10 "/>
<polygon class="st4" points="45,82 85,42 85,50 45,90 "/>
<polygon class="st4" points="45,50 45,58 85,18 85,10 "/>
</svg>
