<?xml version="1.0" encoding="utf-8"?>
<!-- Generator: Adobe Illustrator 24.0.1, SVG Export Plug-In . SVG Version: 6.00 Build 0)  -->
<svg version="1.0" id="Layer_1" xmlns="http://www.w3.org/2000/svg" xmlns:xlink="http://www.w3.org/1999/xlink" x="0px" y="0px"
	 viewBox="0 0 100 100" style="enable-background:new 0 0 100 100;" xml:space="preserve">
<style type="text/css">
	.st0{fill:url(#SVGID_1_);}
	.st1{fill:url(#SVGID_2_);}
	.st2{fill:#FFFFFF;}
</style>
<linearGradient id="SVGID_1_" gradientUnits="userSpaceOnUse" x1="32" y1="69.5" x2="67" y2="34.5" gradientTransform="matrix(1 0 0 -1 0 102)">
	<stop  offset="0" style="stop-color:#739DB6"/>
	<stop  offset="0.1608" style="stop-color:#769FB7"/>
	<stop  offset="0.2646" style="stop-color:#7EA5BC"/>
	<stop  offset="0.3523" style="stop-color:#8DAFC4"/>
	<stop  offset="0.431" style="stop-color:#A2BECF"/>
	<stop  offset="0.5037" style="stop-color:#BDD1DD"/>
	<stop  offset="0.5711" style="stop-color:#DEE8EE"/>
	<stop  offset="0.5884" style="stop-color:#E8EFF3"/>
	<stop  offset="1" style="stop-color:#739DB6"/>
</linearGradient>
<path class="st0" d="M76.5,42h-9c-2.8,0-5-2.3-5-5V23c0-2.8,2.3-5,5-5h9c4.4,0,8-3.6,8-8h-30l-40,40v40h30l40-40
	C84.5,45.6,80.9,42,76.5,42z"/>
<linearGradient id="SVGID_2_" gradientUnits="userSpaceOnUse" x1="35.0324" y1="82.4676" x2="62.0715" y2="55.4285" gradientTransform="matrix(1 0 0 -1 0 102)">
	<stop  offset="0" style="stop-color:#739DB6"/>
	<stop  offset="0.7337" style="stop-color:#E8EFF3"/>
	<stop  offset="0.7361" style="stop-color:#E6EEF2"/>
	<stop  offset="0.7372" style="stop-color:#DFE8EE"/>
	<stop  offset="0.738" style="stop-color:#D2DFE7"/>
	<stop  offset="0.7387" style="stop-color:#C0D3DE"/>
	<stop  offset="0.7393" style="stop-color:#A8C2D2"/>
	<stop  offset="0.7398" style="stop-color:#8CAEC3"/>
	<stop  offset="0.7402" style="stop-color:#739DB6"/>
	<stop  offset="0.8631" style="stop-color:#739DB6"/>
</linearGradient>
<path class="st1" d="M84.5,10h-8h-22l-40,40v8h22c2.3,0,4.4-1,5.9-2.6l0,0l39.5-39.5C83.5,14.4,84.5,12.3,84.5,10z"/>
<path class="st2" d="M36.5,82h-9c-2.8,0-5-2.3-5-5V63c0-2.8,2.3-5,5-5h9c4.4,0,8-3.6,8-8h-30v8v24v8h30C44.5,85.6,40.9,82,36.5,82z"
	/>
</svg>
