<?xml version="1.0" encoding="utf-8"?>
<!-- Generator: Adobe Illustrator 24.0.1, SVG Export Plug-In . SVG Version: 6.00 Build 0)  -->
<svg version="1.1" id="Layer_1" xmlns="http://www.w3.org/2000/svg" xmlns:xlink="http://www.w3.org/1999/xlink" x="0px" y="0px"
	 viewBox="0 0 100 100" style="enable-background:new 0 0 100 100;" xml:space="preserve">
<style type="text/css">
	.st0{fill:url(#SVGID_1_);}
	.st1{fill:#8A8A8A;}
	.st2{fill:url(#SVGID_2_);}
	.st3{fill:url(#SVGID_3_);}
	.st4{fill:url(#SVGID_4_);}
	.st5{fill:url(#SVGID_5_);}
	.st6{fill:url(#SVGID_6_);}
	.st7{fill:url(#SVGID_7_);}
</style>
<g>
	<linearGradient id="SVGID_1_" gradientUnits="userSpaceOnUse" x1="57.9658" y1="50.05" x2="57.9658" y2="28.7743">
		<stop  offset="0" style="stop-color:#D9D9D9"/>
		<stop  offset="1" style="stop-color:#939393"/>
	</linearGradient>
	<polygon class="st0" points="42,34.1 26,50.1 74,50.1 76,48 78,40.1 80,38.1 86,38.1 90,34.1 	"/>
	<polygon class="st1" points="84,34 86,38.1 72.8,38.1 72.8,36 	"/>
	<linearGradient id="SVGID_2_" gradientUnits="userSpaceOnUse" x1="56.9816" y1="40.05" x2="56.9816" y2="34.0184">
		<stop  offset="0" style="stop-color:#D9D9D9"/>
		<stop  offset="1" style="stop-color:#939393"/>
	</linearGradient>
	<polygon class="st2" points="84,34 36,34 30,40.1 78,40.1 	"/>
	<linearGradient id="SVGID_3_" gradientUnits="userSpaceOnUse" x1="52.9868" y1="48.0079" x2="52.9868" y2="40.05">
		<stop  offset="0" style="stop-color:#D9D9D9"/>
		<stop  offset="1" style="stop-color:#939393"/>
	</linearGradient>
	<polygon class="st3" points="28,48 30,40.1 78,40.1 76,48 	"/>
	<linearGradient id="SVGID_4_" gradientUnits="userSpaceOnUse" x1="43.9921" y1="64.0237" x2="43.9921" y2="42.7479">
		<stop  offset="0" style="stop-color:#D9D9D9"/>
		<stop  offset="1" style="stop-color:#939393"/>
	</linearGradient>
	<polygon class="st4" points="28,48 12,64 60,64 62,62 64,54 66,52 72,52 76,48 	"/>
	<polygon class="st1" points="70,48 72,52 58.9,52 58.9,50 	"/>
	<linearGradient id="SVGID_5_" gradientUnits="userSpaceOnUse" x1="43.0079" y1="54.0237" x2="43.0079" y2="47.9921">
		<stop  offset="0" style="stop-color:#D9D9D9"/>
		<stop  offset="1" style="stop-color:#939393"/>
	</linearGradient>
	<polygon class="st5" points="70,48 22,48 16,54 64,54 	"/>
	<linearGradient id="SVGID_6_" gradientUnits="userSpaceOnUse" x1="36.0342" y1="65.9816" x2="36.0342" y2="61.9816">
		<stop  offset="0" style="stop-color:#D9D9D9"/>
		<stop  offset="1" style="stop-color:#939393"/>
	</linearGradient>
	<polygon class="st6" points="62,62 14,62 10,66 58,66 	"/>
	<linearGradient id="SVGID_7_" gradientUnits="userSpaceOnUse" x1="39.0132" y1="61.9816" x2="39.0132" y2="54.0237">
		<stop  offset="0" style="stop-color:#D9D9D9"/>
		<stop  offset="1" style="stop-color:#939393"/>
	</linearGradient>
	<polygon class="st7" points="14,62 16,54 64,54 62,62 	"/>
</g>
</svg>
