<?xml version="1.0" encoding="utf-8"?>
<!-- Generator: Adobe Illustrator 24.0.1, SVG Export Plug-In . SVG Version: 6.00 Build 0)  -->
<svg version="1.0" id="Layer_1" xmlns="http://www.w3.org/2000/svg" xmlns:xlink="http://www.w3.org/1999/xlink" x="0px" y="0px"
	 viewBox="0 0 100 100" style="enable-background:new 0 0 100 100;" xml:space="preserve">
<style type="text/css">
	.st0{fill:url(#SVGID_1_);}
	.st1{fill:#FFFFFF;}
</style>
<linearGradient id="SVGID_1_" gradientUnits="userSpaceOnUse" x1="30.8687" y1="930.8312" x2="74.8432" y2="974.8057" gradientTransform="matrix(1 0 0 1 0 -900)">
	<stop  offset="0" style="stop-color:#739DB6"/>
	<stop  offset="0.1474" style="stop-color:#759FB7"/>
	<stop  offset="0.2197" style="stop-color:#7DA4BB"/>
	<stop  offset="0.2757" style="stop-color:#8AADC2"/>
	<stop  offset="0.3232" style="stop-color:#9DBACC"/>
	<stop  offset="0.3654" style="stop-color:#B5CBD8"/>
	<stop  offset="0.4033" style="stop-color:#D2E0E8"/>
	<stop  offset="0.4264" style="stop-color:#E8EFF3"/>
	<stop  offset="0.5325" style="stop-color:#C7D8E2"/>
	<stop  offset="0.6687" style="stop-color:#A2BECF"/>
	<stop  offset="0.7962" style="stop-color:#88ACC1"/>
	<stop  offset="0.9104" style="stop-color:#79A1B9"/>
	<stop  offset="1" style="stop-color:#739DB6"/>
</linearGradient>
<path class="st0" d="M87,10H53.5c-1.1,0-2.2,0.4-3,1.2L10.8,50.9V89h12.8H46c-1.8,1.2,1.4-5.5,1.4-2.7l0.6-5.9l1.3,8.6l39.9-40
	c0.6-0.6,0.9-1.3,0.9-2.1L90,13C90,11.3,88.7,10,87,10z"/>
<g>
	<path class="st1" d="M41.8,58.3v23.5H18.3V58.3H41.8 M47,50H13c-1.7,0-3,1.3-3,3v34c0,1.7,1.3,3,3,3h34c1.7,0,3-1.3,3-3V53
		C50,51.3,48.7,50,47,50L47,50z"/>
</g>
</svg>
