<?xml version="1.0" encoding="utf-8"?>
<!-- Generator: Adobe Illustrator 24.0.1, SVG Export Plug-In . SVG Version: 6.00 Build 0)  -->
<svg version="1.1" id="Layer_1" xmlns="http://www.w3.org/2000/svg" xmlns:xlink="http://www.w3.org/1999/xlink" x="0px" y="0px"
	 viewBox="0 0 18 18" style="enable-background:new 0 0 18 18;" xml:space="preserve">
<style type="text/css">
	.st0{fill:none;}
	.st1{fill:#739db6;}
</style>
<path class="st0" d="M0,0h18v18H0V0z"/>
<g>
	<path class="st1" d="M9,9.7c-1.5,0-4.5,0.8-4.5,2.3c1,1.5,2.6,2.4,4.5,2.4s3.5-1,4.5-2.4C13.5,10.5,10.5,9.7,9,9.7z"/>
</g>
<g>
	<circle class="st1" cx="9" cy="6" r="1.3"/>
	<path class="st1" d="M9,5.8c0.1,0,0.3,0.1,0.3,0.3S9.1,6.3,9,6.3S8.8,6.1,8.8,6S8.9,5.8,9,5.8 M9,3.8c-1.2,0-2.3,1-2.3,2.3
		s1,2.3,2.3,2.3s2.3-1,2.3-2.3S10.2,3.8,9,3.8L9,3.8z"/>
</g>
</svg>
