<?xml version="1.0" encoding="utf-8"?>
<!-- Generator: Adobe Illustrator 24.0.1, SVG Export Plug-In . SVG Version: 6.00 Build 0)  -->
<svg version="1.0" id="Layer_1" xmlns="http://www.w3.org/2000/svg" xmlns:xlink="http://www.w3.org/1999/xlink" x="0px" y="0px"
	 viewBox="0 0 1920 780" style="enable-background:new 0 0 1920 780;" xml:space="preserve">
<style type="text/css">
	.st0{fill:#739DB6;}
	.st1{fill:#547285;}
	.st2{fill:none;stroke:#739DB6;stroke-width:7;stroke-miterlimit:10;}
</style>
<g>
	<path class="st0" d="M165.9,230c-91.6,0-140.5,71.3-140.5,158.5c0,88.5,50.6,158.5,137.4,158.5c95.1,0,140-76.6,140-160.7
		C302.9,296.5,250.5,230,165.9,230z M164.2,525C90.2,525,51,458.1,51,387.2C51,317.6,85.8,252,165.1,252
		c74.4,0,112.3,63,112.3,134.7C277.3,459.9,243.9,525,164.2,525z"/>
	<polygon class="st0" points="370.7,542.7 394.5,542.7 394.5,394.7 547.3,394.7 547.3,372.7 394.5,372.7 394.5,256.4 557.4,256.4 
		557.4,234.4 370.7,234.4 	"/>
	<polygon class="st0" points="612,542.7 635.8,542.7 635.8,394.7 788.6,394.7 788.6,372.7 635.8,372.7 635.8,256.4 798.7,256.4 
		798.7,234.4 612,234.4 	"/>
	<path class="st0" d="M865.2,388.5C865.2,322,897.3,252,974,252c9.9,0,18.8,0.9,26.9,2.6l7.7-21.2c-10.2-2.3-21.3-3.5-33.3-3.5
		c-89.8,0-135.6,75.7-135.6,159c0,58.9,21.5,110.3,63.1,137.2l8.4-23.2C879,477.3,865.2,432.1,865.2,388.5z"/>
	<g>
		<path class="st1" d="M971.5,568.5c65.2,0,101.3-37,115.8-85.9h-23.8c-15.4,37.9-41,63.9-91.2,63.9c-25.3,0-45.7-7.2-61.8-19.1
			l-8.3,22.9C921.3,562,944.5,568.5,971.5,568.5z"/>
		<path class="st1" d="M1064,340.9h23.8c-8.1-41.2-34.8-73.1-79.3-84.2l-7.7,21.2C1034.3,286.2,1052.8,309.3,1064,340.9z"/>
		<path class="st1" d="M1351.9,443.5c0,81.5-38.3,103-89.8,103c-43.6,0-89.8-21.1-89.8-103V256.8h-24.7v189.4
			c0,89.4,52.8,122.4,113.6,122.4c63.9,0,114.9-29.9,114.9-126.4V256.8h-24.2V443.5z"/>
		<polygon class="st1" points="1423.7,278.8 1527.2,278.8 1527.2,565 1551.4,565 1551.4,278.8 1655.3,278.8 1655.3,256.8 
			1423.7,256.8 		"/>
		<path class="st1" d="M1794.5,390.6c-56.8-14.1-77.1-27.3-77.1-61.2c0-34.3,24.2-55,68.7-55c48.4,0,70,23.8,77.1,56.8h24.7
			c-4-37.4-32.6-78.8-100.4-78.8c-66.1,0-95.6,37.9-95.6,78.4c0,44.5,28.2,65.6,93.4,81.9c67.8,16.7,83.2,38.3,83.2,73.1
			c0,33.5-21.6,61.7-77.9,61.7c-50.6,0-77.9-24.2-87.2-65.2h-24.7c5.7,41.4,33.9,86.3,111,86.3c71.3,0,104.4-39.2,104.4-84.5
			C1894,447,1881.2,412.2,1794.5,390.6z"/>
	</g>
</g>
<line class="st2" x1="1073.8" y1="63.4" x2="837.8" y2="716.4"/>
</svg>
