<?xml version="1.0" encoding="utf-8"?>
<!-- Generator: Adobe Illustrator 24.0.1, SVG Export Plug-In . SVG Version: 6.00 Build 0)  -->
<svg version="1.0" id="Layer_1" xmlns="http://www.w3.org/2000/svg" xmlns:xlink="http://www.w3.org/1999/xlink" x="0px" y="0px"
	 viewBox="0 0 1000 1000" style="enable-background:new 0 0 1000 1000;" xml:space="preserve">
<style type="text/css">
	.st0{fill:#E8EFF3;}
	.st1{fill:#547285;}
	.st2{fill:#739DB6;}
	.st3{fill:none;stroke:#739DB6;stroke-width:15;stroke-miterlimit:10;}
</style>
<rect x="0.5" y="0.5" class="st0" width="999" height="1000"/>
<g>
	<path class="st1" d="M664.3,596.3h-32.6l-11.5-11.1c40.3-47,64.7-107.9,64.7-174.2c0-75.9-31.5-144.4-82.2-193l-32.1,88.8
		c20.1,29.6,32,65.6,32,104.3c0,84.7-56.5,155.9-134,178.1l-32.1,88.8c58.8-4.2,112.7-27.6,155.1-64l11.1,11.5V658l205.9,205.4
		l61.3-61.3L664.3,596.3z"/>
	<path class="st2" d="M397.9,590.4c-102.5,0-185.3-82.8-185.3-185.3s82.8-185.3,185.3-185.3c59.4,0,112.1,27.7,146,71.1l31.2-86.3
		C528,162.9,466,137.5,397.9,137.5c-147.9,0-267.6,119.9-267.6,267.6s119.9,267.6,267.6,267.6c2.8,0,5.4,0,8.2-0.1l31.2-86.4
		C424.5,589,411.4,590.4,397.9,590.4z"/>
</g>
<line class="st3" x1="611.5" y1="118.6" x2="375.5" y2="771.6"/>
</svg>
