<?xml version="1.0" encoding="utf-8"?>
<!-- Generator: Adobe Illustrator 24.0.1, SVG Export Plug-In . SVG Version: 6.00 Build 0)  -->
<svg version="1.0" id="Layer_1" xmlns="http://www.w3.org/2000/svg" xmlns:xlink="http://www.w3.org/1999/xlink" x="0px" y="0px"
	 viewBox="0 0 1000 1000" style="enable-background:new 0 0 1000 1000;" xml:space="preserve">
<style type="text/css">
	.st0{fill:#E8EFF3;}
	.st1{fill:#739DB6;}
	.st2{fill:#547285;}
	.st3{fill:none;stroke:#739DB6;stroke-width:15;stroke-miterlimit:10;}
</style>
<rect x="0.5" y="0.5" class="st0" width="999" height="1000"/>
<g>
	<path class="st1" d="M444.3,617.3l69.2-191.5c-9.2-2.7-19-4.2-29.1-4.2c-56.3,0-102,45.7-102,102
		C382.5,565.7,408,601.8,444.3,617.3z"/>
	<path class="st2" d="M538.7,430.3l-69.1,191.3c8.9,2.5,18.2,3.9,27.9,3.9c56.3,0,102-45.7,102-102
		C599.4,482,574.4,446.2,538.7,430.3z"/>
</g>
<g>
	<path class="st1" d="M425.4,669.8c-57-24.5-96.9-81.1-96.9-146.9c0-88.2,71.6-159.9,159.9-159.9c15.8,0,31.1,2.3,45.5,6.6
		l57.4-158.8l-7-7.7H392.4l-58.5,63.9H232.6c-35.2,0-63.9,28.8-63.9,63.9v383.7c0,35.2,28.8,63.9,63.9,63.9H386L425.4,669.8z"/>
	<path class="st2" d="M757.1,267.1H655.7l-41.6-45.5l-55,152.2c59.7,23.2,102.1,81.2,102.1,149c0,88.2-71.6,159.9-159.9,159.9
		c-17.8,0-34.9-3-50.8-8.3l-37.7,104.2h344.3c35.2,0,63.9-28.8,63.9-63.9V331.1C821,295.9,792.2,267.1,757.1,267.1z"/>
</g>
<line class="st3" x1="627.5" y1="114.5" x2="343.1" y2="899.5"/>
</svg>
