<?xml version="1.0" encoding="utf-8"?>
<!-- Generator: Adobe Illustrator 24.0.1, SVG Export Plug-In . SVG Version: 6.00 Build 0)  -->
<svg version="1.0" id="Layer_1" xmlns="http://www.w3.org/2000/svg" xmlns:xlink="http://www.w3.org/1999/xlink" x="0px" y="0px"
	 viewBox="0 0 24 24" style="enable-background:new 0 0 24 24;" xml:space="preserve">
<style type="text/css">
	.st0{fill:#739DB6;}
	.st1{fill:none;}
</style>
<g>
	<path class="st0" d="M12,0C5.4,0,0,5.4,0,12s5.4,12,12,12s12-5.4,12-12S18.6,0,12,0z M19,20.5l-5-5v-0.8l-0.3-0.3
		c-1.1,1-2.6,1.6-4.2,1.6C5.9,16,3,13.1,3,9.5S5.9,3,9.5,3S16,5.9,16,9.5c0,1.6-0.6,3.1-1.6,4.2l0.3,0.3h0.8l5,5L19,20.5z"/>
	<circle class="st0" cx="9.5" cy="9.5" r="4.5"/>
</g>
<path class="st1" d="M0,0h24v24H0V0z"/>
</svg>
